<?xml version="1.0" encoding="utf-8"?>
<!-- Generator: Adobe Illustrator 16.0.0, SVG Export Plug-In . SVG Version: 6.00 Build 0)  -->
<!DOCTYPE svg PUBLIC "-//W3C//DTD SVG 1.1//EN" "http://www.w3.org/Graphics/SVG/1.1/DTD/svg11.dtd">
<svg version="1.1" id="Layer_1" xmlns="http://www.w3.org/2000/svg" xmlns:xlink="http://www.w3.org/1999/xlink" x="0px" y="0px"
	 width="1618.771px" height="277.419px" viewBox="0 0 1618.771 277.419" enable-background="new 0 0 1618.771 277.419"
	 xml:space="preserve">
<g>
	<path d="M9.23,126.914c0-10.937,1.963-21.833,5.897-32.69c3.93-10.853,9.615-20.596,17.05-29.229
		c7.435-8.629,16.537-15.596,27.306-20.896c10.769-5.296,22.988-7.948,36.665-7.948c16.237,0,30.21,3.678,41.921,11.025
		c11.706,7.352,20.467,16.922,26.28,28.716l-22.563,15.127c-2.396-5.469-5.384-10.083-8.974-13.846
		c-3.589-3.758-7.479-6.75-11.666-8.974c-4.19-2.219-8.505-3.802-12.948-4.743c-4.447-0.938-8.806-1.41-13.076-1.41
		c-9.23,0-17.395,1.923-24.486,5.769c-7.095,3.846-13.036,8.934-17.819,15.256c-4.788,6.326-8.377,13.42-10.769,21.281
		c-2.396,7.864-3.59,15.728-3.59,23.588c0,8.89,1.411,17.351,4.231,25.383c2.82,8.037,6.794,15.127,11.922,21.281
		c5.128,6.154,11.193,11.069,18.204,14.743c7.007,3.678,14.699,5.513,23.076,5.513c4.271,0,8.757-0.553,13.461-1.667
		c4.699-1.11,9.142-2.905,13.333-5.384c4.187-2.476,8.076-5.597,11.666-9.358c3.589-3.758,6.578-8.289,8.974-13.589l23.845,13.589
		c-2.909,6.838-6.967,12.864-12.179,18.076c-5.216,5.216-11.069,9.615-17.563,13.204c-6.498,3.59-13.421,6.326-20.768,8.205
		c-7.352,1.878-14.615,2.82-21.793,2.82c-12.651,0-24.189-2.732-34.613-8.205c-10.428-5.468-19.446-12.603-27.05-21.409
		c-7.608-8.802-13.505-18.801-17.691-29.998C11.321,149.95,9.23,138.54,9.23,126.914z"/>
	<path d="M290.235,194.603c9.571,0,17.519-1.879,23.845-5.641c6.322-3.758,11.41-8.673,15.255-14.743
		c3.846-6.065,6.578-12.988,8.205-20.768c1.622-7.776,2.436-15.769,2.436-23.973V37.176h28.973v92.302
		c0,12.479-1.454,24.229-4.359,35.254c-2.908,11.025-7.523,20.684-13.845,28.973c-6.326,8.292-14.486,14.831-24.486,19.614
		c-9.999,4.787-22.01,7.179-36.023,7.179c-14.53,0-26.793-2.52-36.792-7.563c-10-5.04-18.076-11.794-24.229-20.255
		c-6.153-8.461-10.6-18.16-13.333-29.101c-2.736-10.937-4.102-22.306-4.102-34.101V37.176h28.716v92.302
		c0,8.377,0.81,16.454,2.436,24.229c1.623,7.78,4.359,14.703,8.205,20.768c3.846,6.069,8.974,10.94,15.384,14.614
		C272.929,192.768,280.833,194.603,290.235,194.603z"/>
	<path d="M535.349,79.994c-1.71-1.878-4.19-3.886-7.435-6.025c-3.249-2.135-7.051-4.143-11.41-6.025
		c-4.359-1.879-9.19-3.417-14.486-4.615c-5.3-1.194-10.941-1.794-16.922-1.794c-11.281,0-19.83,2.223-25.639,6.666
		c-5.813,4.447-8.717,10.685-8.717,18.717c0,4.447,0.937,8.077,2.82,10.897c1.879,2.82,4.699,5.256,8.461,7.307
		c3.758,2.051,8.461,3.89,14.102,5.513c5.641,1.626,12.219,3.377,19.743,5.256c8.885,2.396,17.05,4.872,24.485,7.436
		s13.757,5.769,18.973,9.615c5.212,3.846,9.271,8.589,12.179,14.23c2.904,5.641,4.358,12.651,4.358,21.024
		c0,9.575-1.794,17.691-5.384,24.357c-3.589,6.666-8.421,12.095-14.486,16.281c-6.069,4.19-13.12,7.267-21.152,9.23
		c-8.037,1.963-16.582,2.949-25.64,2.949c-13.845,0-27.266-2.091-40.254-6.282c-12.992-4.187-24.702-10.296-35.126-18.333
		l13.333-24.614c2.219,2.224,5.384,4.703,9.486,7.436c4.103,2.736,8.93,5.256,14.486,7.563c5.553,2.308,11.666,4.275,18.333,5.897
		c6.666,1.627,13.589,2.436,20.768,2.436c10.937,0,19.442-2.007,25.512-6.025c6.065-4.014,9.102-9.871,9.102-17.563
		c0-4.615-1.113-8.461-3.333-11.538c-2.223-3.077-5.472-5.769-9.743-8.077c-4.275-2.308-9.487-4.359-15.64-6.153
		c-6.154-1.795-13.165-3.718-21.024-5.769c-9.062-2.392-16.966-4.912-23.717-7.563c-6.754-2.648-12.351-5.853-16.794-9.615
		c-4.447-3.758-7.82-8.161-10.127-13.205c-2.308-5.04-3.461-11.153-3.461-18.332c0-8.886,1.667-16.794,5-23.717
		c3.333-6.922,7.948-12.731,13.845-17.435c5.897-4.699,12.86-8.245,20.896-10.641c8.033-2.392,16.666-3.589,25.896-3.589
		c12.647,0,24.141,1.967,34.485,5.897c10.34,3.934,19.442,8.806,27.306,14.615L535.349,79.994z"/>
	<path d="M730.209,193.833v25.383H605.345V37.176h122.557v25.383h-93.84v51.792h81.277v23.845h-81.277v55.638H730.209z"/>
	<path d="M770.205,126.914c0-10.937,1.963-21.833,5.897-32.69c3.93-10.853,9.615-20.596,17.05-29.229
		c7.435-8.629,16.537-15.596,27.306-20.896c10.769-5.296,22.988-7.948,36.665-7.948c16.236,0,30.211,3.678,41.92,11.025
		c11.707,7.352,20.469,16.922,26.281,28.716l-22.562,15.127c-2.396-5.469-5.385-10.083-8.975-13.846
		c-3.59-3.758-7.479-6.75-11.666-8.974c-4.189-2.219-8.504-3.802-12.947-4.743c-4.447-0.938-8.805-1.41-13.076-1.41
		c-9.23,0-17.395,1.923-24.486,5.769c-7.095,3.846-13.036,8.934-17.819,15.256c-4.788,6.326-8.377,13.42-10.769,21.281
		c-2.396,7.864-3.59,15.728-3.59,23.588c0,8.89,1.411,17.351,4.231,25.383c2.82,8.037,6.794,15.127,11.922,21.281
		c5.128,6.154,11.193,11.069,18.204,14.743c7.007,3.678,14.699,5.513,23.076,5.513c4.27,0,8.758-0.553,13.461-1.667
		c4.699-1.11,9.141-2.905,13.332-5.384c4.186-2.476,8.076-5.597,11.666-9.358c3.59-3.758,6.578-8.289,8.975-13.589l23.844,13.589
		c-2.908,6.838-6.967,12.864-12.18,18.076c-5.215,5.216-11.068,9.615-17.562,13.204c-6.498,3.59-13.42,6.326-20.768,8.205
		c-7.352,1.878-14.615,2.82-21.793,2.82c-12.652,0-24.19-2.732-34.614-8.205c-10.428-5.468-19.446-12.603-27.05-21.409
		c-7.608-8.802-13.505-18.801-17.691-29.998C772.296,149.95,770.205,138.54,770.205,126.914z"/>
</g>
<g>
	<path d="M9.23,126.914c0-10.937,1.963-21.833,5.897-32.69c3.93-10.853,9.615-20.596,17.05-29.229
		c7.435-8.629,16.537-15.596,27.306-20.896c10.769-5.296,22.988-7.948,36.665-7.948c16.237,0,30.21,3.678,41.921,11.025
		c11.706,7.352,20.467,16.922,26.28,28.716l-22.563,15.127c-2.396-5.469-5.384-10.083-8.974-13.846
		c-3.589-3.758-7.479-6.75-11.666-8.974c-4.19-2.219-8.505-3.802-12.948-4.743c-4.447-0.938-8.806-1.41-13.076-1.41
		c-9.23,0-17.395,1.923-24.486,5.769c-7.095,3.846-13.036,8.934-17.819,15.256c-4.788,6.326-8.377,13.42-10.769,21.281
		c-2.396,7.864-3.59,15.728-3.59,23.588c0,8.89,1.411,17.351,4.231,25.383c2.82,8.037,6.794,15.127,11.922,21.281
		c5.128,6.154,11.193,11.069,18.204,14.743c7.007,3.678,14.699,5.513,23.076,5.513c4.271,0,8.757-0.553,13.461-1.667
		c4.699-1.11,9.142-2.905,13.333-5.384c4.187-2.476,8.076-5.597,11.666-9.358c3.589-3.758,6.578-8.289,8.974-13.589l23.845,13.589
		c-2.909,6.838-6.967,12.864-12.179,18.076c-5.216,5.216-11.069,9.615-17.563,13.204c-6.498,3.59-13.421,6.326-20.768,8.205
		c-7.352,1.878-14.615,2.82-21.793,2.82c-12.651,0-24.189-2.732-34.613-8.205c-10.428-5.468-19.446-12.603-27.05-21.409
		c-7.608-8.802-13.505-18.801-17.691-29.998C11.321,149.95,9.23,138.54,9.23,126.914z"/>
	<path d="M290.235,194.603c9.571,0,17.519-1.879,23.845-5.641c6.322-3.758,11.41-8.673,15.255-14.743
		c3.846-6.065,6.578-12.988,8.205-20.768c1.622-7.776,2.436-15.769,2.436-23.973V37.176h28.973v92.302
		c0,12.479-1.454,24.229-4.359,35.254c-2.908,11.025-7.523,20.684-13.845,28.973c-6.326,8.292-14.486,14.831-24.486,19.614
		c-9.999,4.787-22.01,7.179-36.023,7.179c-14.53,0-26.793-2.52-36.792-7.563c-10-5.04-18.076-11.794-24.229-20.255
		c-6.153-8.461-10.6-18.16-13.333-29.101c-2.736-10.937-4.102-22.306-4.102-34.101V37.176h28.716v92.302
		c0,8.377,0.81,16.454,2.436,24.229c1.623,7.78,4.359,14.703,8.205,20.768c3.846,6.069,8.974,10.94,15.384,14.614
		C272.929,192.768,280.833,194.603,290.235,194.603z"/>
	<path d="M535.349,79.994c-1.71-1.878-4.19-3.886-7.435-6.025c-3.249-2.135-7.051-4.143-11.41-6.025
		c-4.359-1.879-9.19-3.417-14.486-4.615c-5.3-1.194-10.941-1.794-16.922-1.794c-11.281,0-19.83,2.223-25.639,6.666
		c-5.813,4.447-8.717,10.685-8.717,18.717c0,4.447,0.937,8.077,2.82,10.897c1.879,2.82,4.699,5.256,8.461,7.307
		c3.758,2.051,8.461,3.89,14.102,5.513c5.641,1.626,12.219,3.377,19.743,5.256c8.885,2.396,17.05,4.872,24.485,7.436
		s13.757,5.769,18.973,9.615c5.212,3.846,9.271,8.589,12.179,14.23c2.904,5.641,4.358,12.651,4.358,21.024
		c0,9.575-1.794,17.691-5.384,24.357c-3.589,6.666-8.421,12.095-14.486,16.281c-6.069,4.19-13.12,7.267-21.152,9.23
		c-8.037,1.963-16.582,2.949-25.64,2.949c-13.845,0-27.266-2.091-40.254-6.282c-12.992-4.187-24.702-10.296-35.126-18.333
		l13.333-24.614c2.219,2.224,5.384,4.703,9.486,7.436c4.103,2.736,8.93,5.256,14.486,7.563c5.553,2.308,11.666,4.275,18.333,5.897
		c6.666,1.627,13.589,2.436,20.768,2.436c10.937,0,19.442-2.007,25.512-6.025c6.065-4.014,9.102-9.871,9.102-17.563
		c0-4.615-1.113-8.461-3.333-11.538c-2.223-3.077-5.472-5.769-9.743-8.077c-4.275-2.308-9.487-4.359-15.64-6.153
		c-6.154-1.795-13.165-3.718-21.024-5.769c-9.062-2.392-16.966-4.912-23.717-7.563c-6.754-2.648-12.351-5.853-16.794-9.615
		c-4.447-3.758-7.82-8.161-10.127-13.205c-2.308-5.04-3.461-11.153-3.461-18.332c0-8.886,1.667-16.794,5-23.717
		c3.333-6.922,7.948-12.731,13.845-17.435c5.897-4.699,12.86-8.245,20.896-10.641c8.033-2.392,16.666-3.589,25.896-3.589
		c12.647,0,24.141,1.967,34.485,5.897c10.34,3.934,19.442,8.806,27.306,14.615L535.349,79.994z"/>
	<path d="M730.209,193.833v25.383H605.345V37.176h122.557v25.383h-93.84v51.792h81.277v23.845h-81.277v55.638H730.209z"/>
	<path d="M770.205,126.914c0-10.937,1.963-21.833,5.897-32.69c3.93-10.853,9.615-20.596,17.05-29.229
		c7.435-8.629,16.537-15.596,27.306-20.896c10.769-5.296,22.988-7.948,36.665-7.948c16.236,0,30.211,3.678,41.92,11.025
		c11.707,7.352,20.469,16.922,26.281,28.716l-22.562,15.127c-2.396-5.469-5.385-10.083-8.975-13.846
		c-3.59-3.758-7.479-6.75-11.666-8.974c-4.189-2.219-8.504-3.802-12.947-4.743c-4.447-0.938-8.805-1.41-13.076-1.41
		c-9.23,0-17.395,1.923-24.486,5.769c-7.095,3.846-13.036,8.934-17.819,15.256c-4.788,6.326-8.377,13.42-10.769,21.281
		c-2.396,7.864-3.59,15.728-3.59,23.588c0,8.89,1.411,17.351,4.231,25.383c2.82,8.037,6.794,15.127,11.922,21.281
		c5.128,6.154,11.193,11.069,18.204,14.743c7.007,3.678,14.699,5.513,23.076,5.513c4.27,0,8.758-0.553,13.461-1.667
		c4.699-1.11,9.141-2.905,13.332-5.384c4.186-2.476,8.076-5.597,11.666-9.358c3.59-3.758,6.578-8.289,8.975-13.589l23.844,13.589
		c-2.908,6.838-6.967,12.864-12.18,18.076c-5.215,5.216-11.068,9.615-17.562,13.204c-6.498,3.59-13.42,6.326-20.768,8.205
		c-7.352,1.878-14.615,2.82-21.793,2.82c-12.652,0-24.19-2.732-34.614-8.205c-10.428-5.468-19.446-12.603-27.05-21.409
		c-7.608-8.802-13.505-18.801-17.691-29.998C772.296,149.95,770.205,138.54,770.205,126.914z"/>
</g>
<g>
	<path d="M1010.553,206.504l81.51-73.534c9.722-8.974,14.956-20.938,14.956-33.402c0-10.719-3.988-21.437-11.716-29.912
		c-8.724-9.722-20.938-14.707-33.152-14.707c-10.968,0-21.686,3.739-30.41,11.467l-8.476,7.727c-2.492,2.493-6.48,2.244-8.475-0.25
		c-2.493-2.492-2.243-6.48,0.249-8.475l8.475-7.977c10.969-9.722,24.928-14.707,38.637-14.707c15.205,0,30.66,5.982,41.877,18.695
		c10.221,10.968,14.956,24.677,14.956,38.138c0,15.455-6.231,30.909-18.694,42.375l-69.795,63.065h82.507
		c3.241,0,5.982,2.742,5.982,6.231c0,3.24-2.741,5.982-5.982,5.982h-97.214h-0.997c-1.745,0-3.49-0.499-4.487-1.745
		C1008.06,212.736,1008.06,208.998,1010.553,206.504z"/>
	<path d="M1172.828,129.979c0-23.431,5.982-44.868,16.701-61.071c10.719-15.454,25.924-26.173,43.622-26.173
		s32.903,10.719,43.622,26.173c10.469,16.203,16.949,37.64,16.949,61.071s-6.48,44.868-16.949,60.821
		c-10.719,15.704-25.924,26.422-43.622,26.422s-32.903-10.719-43.622-26.422C1178.811,174.848,1172.828,153.411,1172.828,129.979z
		 M1185.043,129.979c0,21.437,5.732,40.63,14.706,54.091c8.974,13.211,20.938,20.938,33.402,20.938
		c12.463,0,24.179-7.728,33.401-20.938c8.974-13.461,14.956-32.654,14.956-54.091s-5.982-40.63-14.956-54.091
		c-9.223-13.709-20.938-20.938-33.401-20.938c-12.464,0-24.429,7.229-33.402,20.938
		C1190.775,89.349,1185.043,108.542,1185.043,129.979z"/>
	<path d="M1386.953,60.434l-24.678,14.457c-0.747,0.499-1.994,0.997-2.99,0.997c-2.244,0-4.238-1.246-5.235-2.991
		c-1.745-3.24-0.747-6.73,2.243-8.226l33.651-20.44c2.742-1.496,6.73-0.499,8.226,2.244c0.748,1.495,0.998,2.991,0.748,4.486
		v160.279c0,3.24-2.492,5.982-5.982,5.982c-3.24,0-5.982-2.742-5.982-5.982V60.434z"/>
	<path d="M1554.46,181.329h-94.473h-0.249h-0.498c-1.247,0-2.742-0.249-3.739-1.246c-2.742-1.994-2.991-5.982-0.748-8.476
		l100.953-125.631l0.249-0.249c2.244-2.742,5.733-2.991,8.476-0.748c0.997,0.748,1.495,1.994,1.994,2.991
		c0,0.499,0.249,0.748,0.249,0.997v0.748v119.648h11.716c3.489,0,6.231,2.742,6.231,5.982s-2.742,5.982-6.231,5.982h-11.716v29.912
		c0,3.24-2.742,5.982-6.231,5.982c-3.24,0-5.982-2.742-5.982-5.982V181.329z M1554.46,169.364v-102.2l-82.508,102.2H1554.46z"/>
</g>
</svg>
