<?xml version="1.0" encoding="utf-8"?>
<!-- Generator: Adobe Illustrator 16.0.0, SVG Export Plug-In . SVG Version: 6.00 Build 0)  -->
<!DOCTYPE svg PUBLIC "-//W3C//DTD SVG 1.1//EN" "http://www.w3.org/Graphics/SVG/1.1/DTD/svg11.dtd">
<svg version="1.1" id="Layer_1" xmlns="http://www.w3.org/2000/svg" xmlns:xlink="http://www.w3.org/1999/xlink" x="0px" y="0px"
	 width="50px" height="50px" viewBox="0 0 50 50" enable-background="new 0 0 50 50" xml:space="preserve">
<g>
	<path fill-rule="evenodd" clip-rule="evenodd" fill="#FFFFFF" d="M43.27,11.154c0,0,2.793,0.254,5.203-0.892
		c0,0-1.65,3.32-4.947,4.729c0,0,0.768,3.684,0.143,8.468h-0.02c-0.793,5.886-3.703,13.392-12.725,17.789
		C14.918,49.041,1.508,40.801,1,40.293c0,0,8.373,1.53,13.957-4.349c0,0-6.551-0.381-8.461-6.645c0,0,2.029,0.38,4.066-0.126
		c0,0-4.285-1.311-6.344-5.715H4.156c-0.545-1.206-0.93-2.626-1.01-4.324c0,0,2.094,1.22,3.742,1.088c0,0-6.474-4.98-2.537-13.156
		c0,0,6.682,10.35,19.627,10.222c0,0-1.271-7.156,4.568-10.477c5.834-3.321,10.914,0,12.311,1.532c0,0,3.555-0.638,5.832-2.173
		C46.689,6.171,46.314,9.111,43.27,11.154z"/>
</g>
</svg>
