<?xml version="1.0" encoding="utf-8"?>
<!-- Generator: Adobe Illustrator 16.0.0, SVG Export Plug-In . SVG Version: 6.00 Build 0)  -->
<!DOCTYPE svg PUBLIC "-//W3C//DTD SVG 1.1//EN" "http://www.w3.org/Graphics/SVG/1.1/DTD/svg11.dtd">
<svg version="1.1" id="Layer_1" xmlns="http://www.w3.org/2000/svg" xmlns:xlink="http://www.w3.org/1999/xlink" x="0px" y="0px"
	 width="53.328px" height="50px" viewBox="0 0 53.328 50" enable-background="new 0 0 53.328 50" xml:space="preserve">
<g>
	<path fill="#FFFFFF" d="M24.73,26.133c0,0-3.072-2.086,0.139-5.05l1.449-1.365c3.801-2.764,4.982-6.672,3.293-10.79
		c-0.462-1.13-0.581-1.913-2.119-2.985h6.366l2.095-2.933H18.785v0.005c-1.653,0.014-3.909-0.072-4.956,0.514
		c-6.253,3.501-9.016,8.4-6.899,13.477c1.626,3.909,6.853,6.1,11.845,5.592l-0.453,0.18c0,0-2.345,2.811,0.901,6.014
		c0,0-11.544-0.137-15.06,6.013c-3.296,5.762,1.874,14.135,16.902,11.777c6.549-1.238,11.399-6.071,10.983-11.66
		C31.601,30.059,24.73,26.133,24.73,26.133z M13.693,15.239c-1.474-3.813-0.421-7.771,2.358-8.842
		c2.775-1.077,6.219,1.141,7.693,4.949c1.473,3.808,0.418,7.772-2.355,8.845C18.613,21.263,15.17,19.048,13.693,15.239z
		 M19.153,43.578c-3.041,0.334-10.968-1.667-9.676-7.464c1.464-6.173,11.925-5.294,11.925-5.294
		c2.459,1.541,5.339,4.041,5.545,4.623C30.033,43.618,19.153,43.578,19.153,43.578z"/>
	<polygon fill="#FFFFFF" points="44.929,14.086 44.929,9.005 42.201,9.005 42.201,14.086 37.117,14.086 37.117,16.88 42.201,16.88 
		42.201,22.005 44.929,22.005 44.929,16.88 50.117,16.88 50.117,14.086 	"/>
</g>
<g>
	<path fill="#FFFFFF" d="M24.73,26.133c0,0-1.185-0.808-1.312-2.128h-5.721c-0.355,1.119-0.405,2.88,1.525,4.785
		c0,0-11.544-0.138-15.06,6.013c-3.295,5.764,1.875,14.137,16.903,11.779c6.549-1.238,11.399-6.071,10.983-11.66
		C31.601,30.059,24.73,26.133,24.73,26.133z M19.153,43.578c-3.041,0.334-10.968-1.667-9.676-7.464
		c1.464-6.173,11.925-5.294,11.925-5.294c2.459,1.541,5.339,4.041,5.545,4.623C30.033,43.618,19.153,43.578,19.153,43.578z"/>
</g>
</svg>
